Patient4_TMGait_0pt6_01_right_23_EMG.mot
version=1
nRows=19
nColumns=33
inDegrees=no
endheader
time	1LAddLong	2LGlutMax	3LGlutMed	4LIliopsoas	5LSemiMemb	6LBicFemLong	7LRecFem	8LVastMed	9LVastLat	10LGasMed	11LTibAnt	12lTibPost	13LPeroneusLong	14LSol	15LExtDigLong	16LFlexDigLong	17RAddLong	18RGlutMax	19RGlutMed	20RIliopsoas	21RSemiMemb	22RBicFemLong	23RRecFem	24RVastMed	25RVastLat	26RGasMed	27RTibAnt	28RTibPost	29RPeroneusLong	30RSol	31RExtDigLong	32RFlexDigLong
28.688	0.01236	-0.058594	-0.069427	-0.012054	0.025177	0.016174	0.1474	-0.005951	-0.075378	-0.027924	0.11734	0.15335	0.017395	-0.18494	0.25955	0.011902	0.003204	0.016022	-0.17975	0.040588	-0.009766	0.025787	-0.041046	-0.096283	-0.00473	-0.014954	0.3566	0.001526	-0.14496	-0.011444	0.000458	0.003204
28.689	0.012207	-0.063934	-0.059967	0.000153	0.031128	0.026093	0.12299	-0.005493	-0.057526	-0.010986	0.10651	0.14862	-0.089569	-0.21149	0.14771	0.004883	0.000763	0.046234	-0.15305	-0.028992	0.086517	0.019684	-0.067291	-0.056915	-0.001221	-0.007477	0.43976	-0.003815	-0.43991	-0.04715	-0.000458	-0.001373
28.69	0.013275	-0.077362	0.10391	-0.013123	0.028839	-0.009308	0.17441	-0.002289	-0.00885	-0.027008	0.14954	0.14511	-0.19836	-0.13397	0.066223	0.003815	-0.002747	0.003357	-0.098877	-0.009003	0.09552	-0.017548	-0.046692	-0.10513	0.004578	-0.005951	0.46036	-0.002441	-0.32974	-0.18158	-0.004578	-0.000153
28.691	0.009766	-0.084686	0.11871	-0.008545	0.005493	-0.068054	0.21301	-0.00824	-0.020447	0.006104	0.15274	0.13962	-0.1741	-0.056763	0.02243	0.005646	-0.016327	-0.013733	-0.01358	0.12772	0.15778	0.006256	-0.02655	-0.11887	-0.02533	-0.001984	0.24353	0.001678	-0.21622	-0.25589	-0.002441	0.001831
28.692	0.01358	-0.079498	0.054169	0.006714	-0.020599	-0.046692	0.24994	-0.00473	-0.043182	0.053253	0.22186	0.13702	-0.13199	-0.031891	0.071716	0.010529	-0.01709	-0.029449	-0.03479	0.15518	-0.03479	-0.015564	-0.034637	-0.079041	-0.001068	0.007172	-0.55878	-0.004578	-0.1976	-0.24643	-0.00946	-0.001221
28.693	0.011749	-0.075836	0.025177	0.002899	-0.014648	-0.004425	0.24246	0.002136	-0.047913	0.013733	0.077057	0.12695	0.000763	0.056458	0.080719	0.023804	-0.000916	-0.056458	-0.095978	0.06012	-0.13519	-0.005341	0.001831	-0.054932	-0.019836	-0.001221	-0.43564	0.000153	-0.12222	-0.27908	-0.003815	-0.009003
28.694	0.008545	-0.057831	-0.078125	0.016937	0.014038	0.00885	0.22705	0.001984	-0.090179	-0.03067	-0.1828	0.11658	0.12131	0.074005	0.09903	0.075226	0.001678	-0.049896	-0.057068	-0.081024	-0.071411	-0.031738	0.006256	-0.046692	-0.022278	0.007324	-0.28244	0.002289	-0.035248	-0.28641	-0.009308	-0.004578
28.695	0.011444	-0.035858	0.036316	0.021057	0.012665	0.024567	0.25299	0.004425	-0.1178	0.016327	-0.11246	0.11307	0.023651	0.039063	0.23285	0.094757	-0.005035	-0.059052	-0.098877	-0.12787	0.09491	-0.026703	0.019684	-0.058899	-0.003204	0.007172	0.055084	-0.005341	-0.10681	-0.2002	-0.003052	-0.005798
28.696	0.007324	-0.056152	0.11597	0.016022	0.037079	0.000763	0.28641	0.009308	-0.090332	0.032043	-0.13458	0.10147	-0.054016	0.062866	0.32547	0.087585	-0.01297	-0.066071	-0.11688	-0.055695	0.041809	0.000305	0.034332	-0.085449	-0.032349	0.019836	0.35233	0.001068	-0.16907	-0.029449	-0.007782	-0.014954
28.697	0.010681	-0.080719	0.088959	0.021515	0.022888	-0.025787	0.26138	-0.016327	-0.093231	0.028992	-0.18082	0.093079	-0.083466	0.055695	0.48737	-0.25436	-0.008698	-0.053558	-0.050507	0.087891	0.008087	-0.066071	0.006714	-0.056152	-0.039978	-0.000763	-0.11536	-0.005188	-0.021515	0.068054	-0.001831	-0.016632
28.698	0.011749	-0.121	0.015411	0.015411	0.009918	-0.038757	0.24567	-0.006104	-0.11536	0.008087	-0.13931	0.091858	-0.027313	0.075684	0.40131	-0.35599	0.009308	-0.072327	-0.053864	0.12802	-0.031891	-0.1236	0.01358	-0.029907	-0.032349	-0.003815	-0.27527	-0.003052	0.065002	0.036469	0.000305	-0.019531
28.699	0.004272	-0.12421	-0.029144	0.012207	0.015869	-0.022125	0.21622	0.00824	-0.13748	-0.015106	0.050812	0.087585	-0.018311	0.10117	0.21316	0.14328	0.06424	-0.032654	-0.11002	0.088043	-0.091248	-0.094757	-0.007172	-0.045471	-0.026703	-0.011597	-0.29923	-0.009766	0.37613	0.095367	-0.006256	-0.011292
28.7	0.011444	-0.1181	0.035706	-0.004425	-0.0177	-0.03067	0.19257	0.018921	-0.095673	-0.008698	0.1062	0.078583	0.014801	0.079346	-0.13672	0.16983	0.11673	-0.025482	-0.086823	-0.023193	-0.083313	-0.12268	-0.063629	-0.089874	-0.007019	-0.005188	-0.56778	-0.005493	0.57678	0.099792	0.000916	-0.011139
28.701	0.019531	-0.11169	0.19608	-0.002899	-0.041199	-0.039673	0.224	-0.010071	0.01297	-0.003052	0.074463	0.070801	-0.02594	0.030365	0.24445	0.15366	0.090637	-0.005035	-0.092468	-0.07843	-0.063019	0.09491	-0.020142	-0.073853	-0.013428	0.003815	-0.63339	-0.000763	0.42923	0.090942	-0.005188	-0.010376
28.702	0.002441	-0.13901	0.062561	0.014496	0.043793	-0.036316	0.1416	-0.009766	-0.022583	0.009155	0.0177	0.069122	-0.06897	-0.040131	-0.1265	0.09552	0.051575	-0.029449	-0.066528	-0.033569	0.13092	0.28061	-0.077667	-0.045624	0.013275	0.007782	-0.37506	0.001068	-0.025787	-0.079803	-0.005341	0.003967
28.703	0.010071	-0.15366	-0.013275	0.020142	0.069885	0.003052	0.16144	-0.00946	-0.01358	-0.000763	-0.041809	0.069122	-0.036469	-0.057526	-0.21072	0.048523	0.029755	-0.024719	0.046234	-0.03952	-0.023804	0.23407	-0.066528	-0.092316	-0.008698	0.007629	-0.055542	-0.000458	-0.14389	-0.063629	-0.004272	0.008392
28.704	0.016632	-0.15732	-0.046387	0.013123	0.043945	0.007782	0.2211	-0.006866	-0.018921	-0.003052	0.17471	0.054169	-0.040741	-0.025482	0.15259	-0.003967	0.009613	-0.076752	0.055542	-0.072021	0.072937	0.42313	-0.038605	-0.07309	-0.009613	0.004272	0.21881	0.000305	-0.3595	0.020752	0.000763	0.010834
28.705	0.006104	-0.1442	-0.044708	0.01358	0.028229	0.003662	0.22217	0.000305	-0.06073	0.001068	0.24338	0.057526	-0.009308	-0.011292	-0.1178	-0.016479	-0.019531	-0.048981	-0.041656	-0.037079	0.014343	0.22171	-0.030823	-0.056915	-0.001984	0.006714	0.24506	-0.005341	0.087585	0.020599	-0.002289	0.005951
28.706	0.00412	-0.13428	-0.057983	0.014191	0.009308	-0.012054	0.22553	-0.001678	0.01236	0.011749	0.17654	0.046234	-0.015869	0.041351	-0.33066	-0.036163	-0.017395	-0.02243	-0.22903	0.032806	-0.046692	0.024414	-0.015717	-0.084381	0.026398	0.000153	0.13825	-0.000305	-0.029907	0.031281	-0.005035	0.002747
